# Blender 4.0.2
# www.blender.org
mtllib outer.mtl
o Cylinder
v 0.000000 -0.125000 -2.000000
v 0.000000 0.125000 -2.000000
v 0.261052 -0.125000 -1.982890
v 0.261052 0.125000 -1.982890
v 0.517638 -0.125000 -1.931852
v 0.517638 0.125000 -1.931852
v 0.765367 -0.125000 -1.847759
v 0.765367 0.125000 -1.847759
v 1.000000 -0.125000 -1.732051
v 1.000000 0.125000 -1.732051
v 1.217523 -0.125000 -1.586707
v 1.217523 0.125000 -1.586707
v 1.414214 -0.125000 -1.414214
v 1.414214 0.125000 -1.414214
v 1.586707 -0.125000 -1.217523
v 1.586707 0.125000 -1.217523
v 1.732051 -0.125000 -1.000000
v 1.732051 0.125000 -1.000000
v 1.847759 -0.125000 -0.765367
v 1.847759 0.125000 -0.765367
v 1.931852 -0.125000 -0.517638
v 1.931852 0.125000 -0.517638
v 1.982890 -0.125000 -0.261052
v 1.982890 0.125000 -0.261052
v 2.000000 -0.125000 0.000000
v 2.000000 0.125000 0.000000
v 1.982890 -0.125000 0.261052
v 1.982890 0.125000 0.261052
v 1.931852 -0.125000 0.517638
v 1.931852 0.125000 0.517638
v 1.847759 -0.125000 0.765367
v 1.847759 0.125000 0.765367
v 1.732051 -0.125000 1.000000
v 1.732051 0.125000 1.000000
v 1.586707 -0.125000 1.217523
v 1.586707 0.125000 1.217523
v 1.414214 -0.125000 1.414214
v 1.414214 0.125000 1.414214
v 1.217523 -0.125000 1.586707
v 1.217523 0.125000 1.586707
v 1.000000 -0.125000 1.732051
v 1.000000 0.125000 1.732051
v 0.765367 -0.125000 1.847759
v 0.765367 0.125000 1.847759
v 0.517638 -0.125000 1.931852
v 0.517638 0.125000 1.931852
v 0.261052 -0.125000 1.982890
v 0.261052 0.125000 1.982890
v 0.000000 -0.125000 2.000000
v 0.000000 0.125000 2.000000
v -0.261052 -0.125000 1.982890
v -0.261052 0.125000 1.982890
v -0.517638 -0.125000 1.931852
v -0.517638 0.125000 1.931852
v -0.765367 -0.125000 1.847759
v -0.765367 0.125000 1.847759
v -1.000000 -0.125000 1.732051
v -1.000000 0.125000 1.732051
v -1.217523 -0.125000 1.586707
v -1.217523 0.125000 1.586707
v -1.414214 -0.125000 1.414214
v -1.414214 0.125000 1.414214
v -1.586707 -0.125000 1.217523
v -1.586707 0.125000 1.217523
v -1.732051 -0.125000 1.000000
v -1.732051 0.125000 1.000000
v -1.847759 -0.125000 0.765367
v -1.847759 0.125000 0.765367
v -1.931852 -0.125000 0.517638
v -1.931852 0.125000 0.517638
v -1.982890 -0.125000 0.261052
v -1.982890 0.125000 0.261052
v -2.000000 -0.125000 0.000000
v -2.000000 0.125000 0.000000
v -1.982890 -0.125000 -0.261052
v -1.982890 0.125000 -0.261052
v -1.931852 -0.125000 -0.517638
v -1.931852 0.125000 -0.517638
v -1.847759 -0.125000 -0.765367
v -1.847759 0.125000 -0.765367
v -1.732051 -0.125000 -1.000000
v -1.732051 0.125000 -1.000000
v -1.586707 -0.125000 -1.217523
v -1.586707 0.125000 -1.217523
v -1.414214 -0.125000 -1.414214
v -1.414214 0.125000 -1.414214
v -1.217523 -0.125000 -1.586707
v -1.217523 0.125000 -1.586707
v -1.000000 -0.125000 -1.732051
v -1.000000 0.125000 -1.732051
v -0.765367 -0.125000 -1.847759
v -0.765367 0.125000 -1.847759
v -0.517638 -0.125000 -1.931852
v -0.517638 0.125000 -1.931852
v -0.261052 -0.125000 -1.982890
v -0.261052 0.125000 -1.982890
v -0.228421 -0.125000 -1.735029
v -0.228421 0.125000 -1.735029
v 0.228421 -0.125000 -1.735029
v 0.228421 0.125000 -1.735029
v 0.000000 -0.125000 -1.750000
v 0.000000 0.125000 -1.750000
v 0.452933 0.125000 -1.690370
v 0.452933 -0.125000 -1.690370
v -0.452933 -0.125000 -1.690370
v -0.452933 0.125000 -1.690370
v 0.669696 0.125000 -1.616789
v 0.669696 -0.125000 -1.616789
v -0.669696 -0.125000 -1.616789
v -0.669696 0.125000 -1.616789
v -0.875000 -0.125000 -1.515544
v -0.875000 0.125000 -1.515544
v 0.875000 0.125000 -1.515544
v 0.875000 -0.125000 -1.515544
v 1.237437 -0.125000 -1.237437
v 1.237437 0.125000 -1.237437
v 1.388368 -0.125000 -1.065333
v 1.388368 0.125000 -1.065333
v 1.065333 -0.125000 -1.388368
v 1.065333 0.125000 -1.388368
v -1.065333 -0.125000 -1.388368
v -1.065333 0.125000 -1.388368
v -1.237437 -0.125000 -1.237437
v -1.237437 0.125000 -1.237437
v 1.735029 -0.125000 0.228421
v 1.735029 0.125000 0.228421
v 1.750000 0.125000 0.000000
v 1.750000 -0.125000 0.000000
v 1.735029 0.125000 -0.228421
v 1.735029 -0.125000 -0.228421
v 1.690370 0.125000 -0.452933
v 1.690370 -0.125000 -0.452933
v 1.690370 -0.125000 0.452933
v 1.690370 0.125000 0.452933
v 1.616789 -0.125000 -0.669696
v 1.616789 0.125000 -0.669696
v 1.616789 -0.125000 0.669696
v 1.616789 0.125000 0.669696
v 1.515544 0.125000 0.875000
v 1.515544 -0.125000 0.875000
v 1.515544 -0.125000 -0.875000
v 1.515544 0.125000 -0.875000
v -1.388368 0.125000 -1.065333
v -1.388368 -0.125000 -1.065333
v -1.515544 0.125000 -0.875000
v -1.515544 -0.125000 -0.875000
v -1.616789 0.125000 -0.669696
v -1.616789 -0.125000 -0.669696
v -1.690370 0.125000 0.452933
v -1.690370 -0.125000 0.452933
v -1.616789 -0.125000 0.669696
v -1.616789 0.125000 0.669696
v -1.690370 0.125000 -0.452933
v -1.690370 -0.125000 -0.452933
v -1.735029 0.125000 -0.228421
v -1.735029 -0.125000 -0.228421
v -1.750000 0.125000 0.000000
v -1.750000 -0.125000 0.000000
v -1.735029 0.125000 0.228421
v -1.735029 -0.125000 0.228421
v 1.388368 0.125000 1.065333
v 1.388368 -0.125000 1.065333
v 1.237437 0.125000 1.237437
v 1.237437 -0.125000 1.237437
v 0.669696 -0.125000 1.616789
v 0.669696 0.125000 1.616789
v 1.065333 0.125000 1.388368
v 1.065333 -0.125000 1.388368
v 0.875000 0.125000 1.515544
v 0.875000 -0.125000 1.515544
v 0.452933 -0.125000 1.690370
v 0.452933 0.125000 1.690370
v 0.228421 -0.125000 1.735029
v 0.228421 0.125000 1.735029
v 0.000000 0.125000 1.750000
v 0.000000 -0.125000 1.750000
v -0.228421 0.125000 1.735029
v -0.228421 -0.125000 1.735029
v -0.669696 -0.125000 1.616789
v -0.669696 0.125000 1.616789
v -0.452933 -0.125000 1.690370
v -0.452933 0.125000 1.690370
v -0.875000 -0.125000 1.515544
v -0.875000 0.125000 1.515544
v -1.065333 -0.125000 1.388368
v -1.065333 0.125000 1.388368
v -1.237437 -0.125000 1.237437
v -1.237437 0.125000 1.237437
v -1.515544 -0.125000 0.875000
v -1.515544 0.125000 0.875000
v -1.388368 -0.125000 1.065333
v -1.388368 0.125000 1.065333
vn 0.0654 -0.0000 -0.9979
vn 0.1951 -0.0000 -0.9808
vn 0.3214 -0.0000 -0.9469
vn 0.4423 -0.0000 -0.8969
vn 0.5556 -0.0000 -0.8315
vn 0.6593 -0.0000 -0.7518
vn 0.7518 -0.0000 -0.6593
vn 0.8315 -0.0000 -0.5556
vn 0.8969 -0.0000 -0.4423
vn 0.9469 -0.0000 -0.3214
vn 0.9808 -0.0000 -0.1951
vn 0.9979 -0.0000 -0.0654
vn 0.9979 -0.0000 0.0654
vn 0.9808 -0.0000 0.1951
vn 0.9469 -0.0000 0.3214
vn 0.8969 -0.0000 0.4423
vn 0.8315 -0.0000 0.5556
vn 0.7518 -0.0000 0.6593
vn 0.6593 -0.0000 0.7518
vn 0.5556 -0.0000 0.8315
vn 0.4423 -0.0000 0.8969
vn 0.3214 -0.0000 0.9469
vn 0.1951 -0.0000 0.9808
vn 0.0654 -0.0000 0.9979
vn -0.0654 -0.0000 0.9979
vn -0.1951 -0.0000 0.9808
vn -0.3214 -0.0000 0.9469
vn -0.4423 -0.0000 0.8969
vn -0.5556 -0.0000 0.8315
vn -0.6593 -0.0000 0.7518
vn -0.7518 -0.0000 0.6593
vn -0.8315 -0.0000 0.5556
vn -0.8969 -0.0000 0.4423
vn -0.9469 -0.0000 0.3214
vn -0.9808 -0.0000 0.1951
vn -0.9979 -0.0000 0.0654
vn -0.9979 -0.0000 -0.0654
vn -0.9808 -0.0000 -0.1951
vn -0.9469 -0.0000 -0.3214
vn -0.8969 -0.0000 -0.4423
vn -0.8315 -0.0000 -0.5556
vn -0.7518 -0.0000 -0.6593
vn -0.6593 -0.0000 -0.7518
vn -0.5556 -0.0000 -0.8315
vn -0.4423 -0.0000 -0.8969
vn -0.3214 -0.0000 -0.9469
vn -0.0000 1.0000 -0.0000
vn -0.1951 -0.0000 -0.9808
vn -0.0654 -0.0000 -0.9979
vn -0.0000 -1.0000 -0.0000
vt 1.000000 0.500000
vt 1.000000 1.000000
vt 0.979167 1.000000
vt 0.979167 0.500000
vt 0.958333 1.000000
vt 0.958333 0.500000
vt 0.937500 1.000000
vt 0.937500 0.500000
vt 0.916667 1.000000
vt 0.916667 0.500000
vt 0.895833 1.000000
vt 0.895833 0.500000
vt 0.875000 1.000000
vt 0.875000 0.500000
vt 0.854167 1.000000
vt 0.854167 0.500000
vt 0.833333 1.000000
vt 0.833333 0.500000
vt 0.812500 1.000000
vt 0.812500 0.500000
vt 0.791667 1.000000
vt 0.791667 0.500000
vt 0.770834 1.000000
vt 0.770834 0.500000
vt 0.750000 1.000000
vt 0.750000 0.500000
vt 0.729167 1.000000
vt 0.729167 0.500000
vt 0.708334 1.000000
vt 0.708334 0.500000
vt 0.687500 1.000000
vt 0.687500 0.500000
vt 0.666667 1.000000
vt 0.666667 0.500000
vt 0.645834 1.000000
vt 0.645834 0.500000
vt 0.625000 1.000000
vt 0.625000 0.500000
vt 0.604167 1.000000
vt 0.604167 0.500000
vt 0.583334 1.000000
vt 0.583334 0.500000
vt 0.562500 1.000000
vt 0.562500 0.500000
vt 0.541667 1.000000
vt 0.541667 0.500000
vt 0.520834 1.000000
vt 0.520834 0.500000
vt 0.500000 1.000000
vt 0.500000 0.500000
vt 0.479167 1.000000
vt 0.479167 0.500000
vt 0.458334 1.000000
vt 0.458334 0.500000
vt 0.437500 1.000000
vt 0.437500 0.500000
vt 0.416667 1.000000
vt 0.416667 0.500000
vt 0.395834 1.000000
vt 0.395834 0.500000
vt 0.375000 1.000000
vt 0.375000 0.500000
vt 0.354167 1.000000
vt 0.354167 0.500000
vt 0.333334 1.000000
vt 0.333334 0.500000
vt 0.312500 1.000000
vt 0.312500 0.500000
vt 0.291667 1.000000
vt 0.291667 0.500000
vt 0.270834 1.000000
vt 0.270834 0.500000
vt 0.250000 1.000000
vt 0.250000 0.500000
vt 0.229167 1.000000
vt 0.229167 0.500000
vt 0.208334 1.000000
vt 0.208334 0.500000
vt 0.187500 1.000000
vt 0.187500 0.500000
vt 0.166667 1.000000
vt 0.166667 0.500000
vt 0.145834 1.000000
vt 0.145834 0.500000
vt 0.125000 1.000000
vt 0.125000 0.500000
vt 0.104167 1.000000
vt 0.104167 0.500000
vt 0.083334 1.000000
vt 0.083334 0.500000
vt 0.062500 1.000000
vt 0.062500 0.500000
vt 0.041667 1.000000
vt 0.041667 0.500000
vt 0.281326 0.487947
vt 0.250000 0.490000
vt 0.218674 0.487947
vt 0.187883 0.481822
vt 0.158156 0.471731
vt 0.130000 0.457846
vt 0.103897 0.440405
vt 0.080294 0.419706
vt 0.059595 0.396103
vt 0.042154 0.370000
vt 0.028269 0.341844
vt 0.018178 0.312117
vt 0.012053 0.281326
vt 0.010000 0.250000
vt 0.040000 0.250000
vt 0.041797 0.277411
vt 0.047156 0.304352
vt 0.055985 0.330364
vt 0.068135 0.355000
vt 0.083396 0.377840
vt 0.101508 0.398492
vt 0.122160 0.416604
vt 0.145000 0.431865
vt 0.169637 0.444015
vt 0.195648 0.452845
vt 0.222590 0.458203
vt 0.250000 0.460000
vt 0.277411 0.458203
vt 0.304352 0.452844
vt 0.330364 0.444015
vt 0.355000 0.431865
vt 0.377840 0.416604
vt 0.398492 0.398492
vt 0.416604 0.377840
vt 0.431865 0.355000
vt 0.444015 0.330363
vt 0.452844 0.304352
vt 0.458203 0.277411
vt 0.460000 0.250000
vt 0.490000 0.250000
vt 0.487947 0.281326
vt 0.481822 0.312117
vt 0.471731 0.341844
vt 0.457846 0.370000
vt 0.440405 0.396103
vt 0.419706 0.419706
vt 0.396103 0.440405
vt 0.370000 0.457846
vt 0.341844 0.471731
vt 0.312117 0.481822
vt 0.020834 1.000000
vt 0.020834 0.500000
vt 0.000000 1.000000
vt 0.000000 0.500000
vt 0.750000 0.490000
vt 0.781326 0.487947
vt 0.812117 0.481822
vt 0.841844 0.471731
vt 0.870000 0.457846
vt 0.896103 0.440405
vt 0.919706 0.419706
vt 0.940405 0.396103
vt 0.957846 0.370000
vt 0.971731 0.341844
vt 0.981822 0.312117
vt 0.987947 0.281326
vt 0.990000 0.250000
vt 0.960000 0.250000
vt 0.958203 0.277411
vt 0.952845 0.304352
vt 0.944015 0.330364
vt 0.931865 0.355000
vt 0.916604 0.377840
vt 0.898493 0.398493
vt 0.877840 0.416604
vt 0.855000 0.431865
vt 0.830364 0.444015
vt 0.804352 0.452844
vt 0.777411 0.458203
vt 0.750000 0.460000
vt 0.722590 0.458203
vt 0.695648 0.452844
vt 0.669636 0.444015
vt 0.645000 0.431865
vt 0.622160 0.416604
vt 0.601508 0.398492
vt 0.583396 0.377840
vt 0.568135 0.355000
vt 0.555985 0.330363
vt 0.547156 0.304352
vt 0.541797 0.277411
vt 0.540000 0.250000
vt 0.510000 0.250000
vt 0.512053 0.281326
vt 0.518178 0.312117
vt 0.528269 0.341844
vt 0.542154 0.370000
vt 0.559595 0.396103
vt 0.580294 0.419706
vt 0.603897 0.440405
vt 0.630000 0.457846
vt 0.658156 0.471731
vt 0.687883 0.481822
vt 0.718674 0.487947
vt 0.812500 0.718750
vt 0.812500 0.781250
vt 0.833333 0.781250
vt 0.833333 0.718750
vt 0.270834 0.718750
vt 0.270834 0.781250
vt 0.291667 0.781250
vt 0.291667 0.718750
vt 0.020834 0.718750
vt 0.020834 0.781250
vt 0.041667 0.781250
vt 0.041667 0.718750
vt 0.312500 0.781250
vt 0.312500 0.718750
vt 0.750000 0.718750
vt 0.750000 0.781250
vt 0.770834 0.781250
vt 0.770834 0.718750
vt 0.791667 0.781250
vt 0.791667 0.718750
vt 0.479167 0.718750
vt 0.479167 0.781250
vt 0.500000 0.781250
vt 0.500000 0.718750
vt 0.854167 0.718750
vt 0.854167 0.781250
vt 0.875000 0.781250
vt 0.875000 0.718750
vt 0.895833 0.718750
vt 0.895833 0.781250
vt 0.916667 0.781250
vt 0.916667 0.718750
vt 0.333334 0.781250
vt 0.333334 0.718750
vt 0.645834 0.718750
vt 0.645834 0.781250
vt 0.666667 0.781250
vt 0.666667 0.718750
vt 0.458203 0.222589
vt 0.452844 0.195648
vt 0.444015 0.169636
vt 0.431865 0.145000
vt 0.416604 0.122160
vt 0.398492 0.101508
vt 0.377840 0.083396
vt 0.355000 0.068135
vt 0.330364 0.055985
vt 0.304352 0.047156
vt 0.277411 0.041797
vt 0.250000 0.040000
vt 0.222590 0.041797
vt 0.195648 0.047156
vt 0.169637 0.055985
vt 0.145000 0.068135
vt 0.122160 0.083396
vt 0.101508 0.101508
vt 0.083396 0.122160
vt 0.068135 0.145000
vt 0.055985 0.169637
vt 0.047156 0.195648
vt 0.041797 0.222590
vt 0.012053 0.218674
vt 0.018178 0.187883
vt 0.028269 0.158156
vt 0.042154 0.130000
vt 0.059595 0.103897
vt 0.080294 0.080294
vt 0.103897 0.059595
vt 0.130000 0.042154
vt 0.158156 0.028269
vt 0.187883 0.018178
vt 0.218674 0.012053
vt 0.250000 0.010000
vt 0.281326 0.012053
vt 0.312117 0.018178
vt 0.341844 0.028269
vt 0.370000 0.042154
vt 0.396103 0.059595
vt 0.419706 0.080294
vt 0.440405 0.103897
vt 0.457846 0.130000
vt 0.471731 0.158156
vt 0.481822 0.187883
vt 0.487947 0.218674
vt 0.437500 0.718750
vt 0.437500 0.781250
vt 0.458334 0.781250
vt 0.458334 0.718750
vt 0.687500 0.781250
vt 0.687500 0.718750
vt 0.354167 0.781250
vt 0.354167 0.718750
vt 0.937500 0.781250
vt 0.937500 0.718750
vt 0.604167 0.718750
vt 0.604167 0.781250
vt 0.625000 0.781250
vt 0.625000 0.718750
vt 0.062500 0.781250
vt 0.062500 0.718750
vt 0.958333 0.781250
vt 0.958333 0.718750
vt 0.729167 0.718750
vt 0.729167 0.781250
vt 0.395834 0.718750
vt 0.395834 0.781250
vt 0.416667 0.781250
vt 0.416667 0.718750
vt 0.375000 0.781250
vt 0.375000 0.718750
vt 0.541797 0.222589
vt 0.547156 0.195648
vt 0.555985 0.169636
vt 0.568135 0.145000
vt 0.583396 0.122160
vt 0.601507 0.101508
vt 0.622160 0.083396
vt 0.645000 0.068135
vt 0.669636 0.055985
vt 0.695648 0.047156
vt 0.722589 0.041797
vt 0.750000 0.040000
vt 0.777411 0.041797
vt 0.804352 0.047156
vt 0.830364 0.055985
vt 0.855000 0.068135
vt 0.877840 0.083396
vt 0.898492 0.101508
vt 0.916604 0.122160
vt 0.931865 0.145000
vt 0.944015 0.169637
vt 0.952845 0.195648
vt 0.958203 0.222590
vt 0.987947 0.218674
vt 0.981822 0.187883
vt 0.971731 0.158156
vt 0.957846 0.130000
vt 0.940405 0.103897
vt 0.919706 0.080294
vt 0.896103 0.059595
vt 0.870000 0.042154
vt 0.841844 0.028269
vt 0.812117 0.018178
vt 0.781326 0.012053
vt 0.750000 0.010000
vt 0.718674 0.012053
vt 0.687883 0.018178
vt 0.658156 0.028269
vt 0.630000 0.042154
vt 0.603897 0.059595
vt 0.580294 0.080294
vt 0.559595 0.103897
vt 0.542154 0.130000
vt 0.528269 0.158156
vt 0.518178 0.187883
vt 0.512053 0.218674
vt 0.250000 0.718750
vt 0.250000 0.781250
vt 0.187500 0.718750
vt 0.187500 0.781250
vt 0.208334 0.781250
vt 0.208334 0.718750
vt 0.583334 0.718750
vt 0.583334 0.781250
vt 0.708334 0.718750
vt 0.708334 0.781250
vt 0.541667 0.718750
vt 0.541667 0.781250
vt 0.562500 0.781250
vt 0.562500 0.718750
vt 0.979167 0.718750
vt 0.979167 0.781250
vt 1.000000 0.781250
vt 1.000000 0.718750
vt 0.000000 0.718750
vt 0.000000 0.781250
vt 0.520834 0.781250
vt 0.520834 0.718750
vt 0.125000 0.718750
vt 0.125000 0.781250
vt 0.145834 0.781250
vt 0.145834 0.718750
vt 0.229167 0.781250
vt 0.229167 0.718750
vt 0.083334 0.781250
vt 0.083334 0.718750
vt 0.166667 0.781250
vt 0.166667 0.718750
vt 0.104167 0.781250
vt 0.104167 0.718750
s 0
f 1/1/1 2/2/1 4/3/1 3/4/1
f 3/4/2 4/3/2 6/5/2 5/6/2
f 5/6/3 6/5/3 8/7/3 7/8/3
f 7/8/4 8/7/4 10/9/4 9/10/4
f 9/10/5 10/9/5 12/11/5 11/12/5
f 11/12/6 12/11/6 14/13/6 13/14/6
f 13/14/7 14/13/7 16/15/7 15/16/7
f 15/16/8 16/15/8 18/17/8 17/18/8
f 17/18/9 18/17/9 20/19/9 19/20/9
f 19/20/10 20/19/10 22/21/10 21/22/10
f 21/22/11 22/21/11 24/23/11 23/24/11
f 23/24/12 24/23/12 26/25/12 25/26/12
f 25/26/13 26/25/13 28/27/13 27/28/13
f 27/28/14 28/27/14 30/29/14 29/30/14
f 29/30/15 30/29/15 32/31/15 31/32/15
f 31/32/16 32/31/16 34/33/16 33/34/16
f 33/34/17 34/33/17 36/35/17 35/36/17
f 35/36/18 36/35/18 38/37/18 37/38/18
f 37/38/19 38/37/19 40/39/19 39/40/19
f 39/40/20 40/39/20 42/41/20 41/42/20
f 41/42/21 42/41/21 44/43/21 43/44/21
f 43/44/22 44/43/22 46/45/22 45/46/22
f 45/46/23 46/45/23 48/47/23 47/48/23
f 47/48/24 48/47/24 50/49/24 49/50/24
f 49/50/25 50/49/25 52/51/25 51/52/25
f 51/52/26 52/51/26 54/53/26 53/54/26
f 53/54/27 54/53/27 56/55/27 55/56/27
f 55/56/28 56/55/28 58/57/28 57/58/28
f 57/58/29 58/57/29 60/59/29 59/60/29
f 59/60/30 60/59/30 62/61/30 61/62/30
f 61/62/31 62/61/31 64/63/31 63/64/31
f 63/64/32 64/63/32 66/65/32 65/66/32
f 65/66/33 66/65/33 68/67/33 67/68/33
f 67/68/34 68/67/34 70/69/34 69/70/34
f 69/70/35 70/69/35 72/71/35 71/72/35
f 71/72/36 72/71/36 74/73/36 73/74/36
f 73/74/37 74/73/37 76/75/37 75/76/37
f 75/76/38 76/75/38 78/77/38 77/78/38
f 77/78/39 78/77/39 80/79/39 79/80/39
f 79/80/40 80/79/40 82/81/40 81/82/40
f 81/82/41 82/81/41 84/83/41 83/84/41
f 83/84/42 84/83/42 86/85/42 85/86/42
f 85/86/43 86/85/43 88/87/43 87/88/43
f 87/88/44 88/87/44 90/89/44 89/90/44
f 89/90/45 90/89/45 92/91/45 91/92/45
f 91/92/46 92/91/46 94/93/46 93/94/46
f 4/95/47 2/96/47 96/97/47 94/98/47 92/99/47 90/100/47 88/101/47 86/102/47 84/103/47 82/104/47 80/105/47 78/106/47 76/107/47 74/108/47 157/109/47 155/110/47 153/111/47 147/112/47 145/113/47 143/114/47 124/115/47 122/116/47 112/117/47 110/118/47 106/119/47 98/120/47 102/121/47 100/122/47 103/123/47 107/124/47 113/125/47 120/126/47 116/127/47 118/128/47 142/129/47 136/130/47 131/131/47 129/132/47 127/133/47 26/134/47 24/135/47 22/136/47 20/137/47 18/138/47 16/139/47 14/140/47 12/141/47 10/142/47 8/143/47 6/144/47
f 93/94/48 94/93/48 96/145/48 95/146/48
f 95/146/49 96/145/49 2/147/49 1/148/49
f 1/149/50 3/150/50 5/151/50 7/152/50 9/153/50 11/154/50 13/155/50 15/156/50 17/157/50 19/158/50 21/159/50 23/160/50 25/161/50 128/162/50 130/163/50 132/164/50 135/165/50 141/166/50 117/167/50 115/168/50 119/169/50 114/170/50 108/171/50 104/172/50 99/173/50 101/174/50 97/175/50 105/176/50 109/177/50 111/178/50 121/179/50 123/180/50 144/181/50 146/182/50 148/183/50 154/184/50 156/185/50 158/186/50 73/187/50 75/188/50 77/189/50 79/190/50 81/191/50 83/192/50 85/193/50 87/194/50 89/195/50 91/196/50 93/197/50 95/198/50
f 135/199/33 136/200/33 142/201/33 141/202/33
f 160/203/11 159/204/11 149/205/11 150/206/11
f 97/207/23 98/208/23 106/209/23 105/210/23
f 150/206/10 149/205/10 152/211/10 151/212/10
f 128/213/36 127/214/36 129/215/36 130/216/36
f 130/216/35 129/215/35 131/217/35 132/218/35
f 178/219/1 177/220/1 175/221/1 176/222/1
f 117/223/31 118/224/31 116/225/31 115/226/31
f 141/202/32 142/201/32 118/224/32 117/223/32
f 119/227/29 120/228/29 113/229/29 114/230/29
f 151/212/9 152/211/9 190/231/9 189/232/9
f 162/233/41 161/234/41 139/235/41 140/236/41
f 26/134/47 127/133/47 126/237/47 134/238/47 138/239/47 139/240/47 161/241/47 163/242/47 167/243/47 169/244/47 166/245/47 172/246/47 174/247/47 175/248/47 177/249/47 182/250/47 180/251/47 184/252/47 186/253/47 188/254/47 192/255/47 190/256/47 152/257/47 149/258/47 159/259/47 157/109/47 74/108/47 72/260/47 70/261/47 68/262/47 66/263/47 64/264/47 62/265/47 60/266/47 58/267/47 56/268/47 54/269/47 52/270/47 50/271/47 48/272/47 46/273/47 44/274/47 42/275/47 40/276/47 38/277/47 36/278/47 34/279/47 32/280/47 30/281/47 28/282/47
f 179/283/3 180/284/3 182/285/3 181/286/3
f 140/236/40 139/235/40 138/287/40 137/288/40
f 189/232/8 190/231/8 192/289/8 191/290/8
f 114/230/28 113/229/28 107/291/28 108/292/28
f 168/293/43 167/294/43 163/295/43 164/296/43
f 105/210/22 106/209/22 110/297/22 109/298/22
f 108/292/27 107/291/27 103/299/27 104/300/27
f 125/301/37 126/302/37 127/214/37 128/213/37
f 185/303/5 186/304/5 184/305/5 183/306/5
f 191/290/7 192/289/7 188/307/7 187/308/7
f 181/286/2 182/285/2 177/220/2 178/219/2
f 73/187/50 158/186/50 160/309/50 150/310/50 151/311/50 189/312/50 191/313/50 187/314/50 185/315/50 183/316/50 179/317/50 181/318/50 178/319/50 176/320/50 173/321/50 171/322/50 165/323/50 170/324/50 168/325/50 164/326/50 162/327/50 140/328/50 137/329/50 133/330/50 125/331/50 128/162/50 25/161/50 27/332/50 29/333/50 31/334/50 33/335/50 35/336/50 37/337/50 39/338/50 41/339/50 43/340/50 45/341/50 47/342/50 49/343/50 51/344/50 53/345/50 55/346/50 57/347/50 59/348/50 61/349/50 63/350/50 65/351/50 67/352/50 69/353/50 71/354/50
f 158/355/12 157/356/12 159/204/12 160/203/12
f 148/357/15 147/358/15 153/359/15 154/360/15
f 170/361/44 169/362/44 167/294/44 168/293/44
f 133/363/38 134/364/38 126/302/38 125/301/38
f 171/365/46 172/366/46 166/367/46 165/368/46
f 99/369/25 100/370/25 102/371/25 101/372/25
f 115/226/30 116/225/30 120/228/30 119/227/30
f 101/373/24 102/374/24 98/208/24 97/207/24
f 176/222/49 175/221/49 174/375/49 173/376/49
f 123/377/18 124/378/18 143/379/18 144/380/18
f 132/218/34 131/217/34 136/200/34 135/199/34
f 164/296/42 163/295/42 161/234/42 162/233/42
f 154/360/14 153/359/14 155/381/14 156/382/14
f 109/298/21 110/297/21 112/383/21 111/384/21
f 187/308/6 188/307/6 186/304/6 185/303/6
f 173/376/48 174/375/48 172/366/48 171/365/48
f 104/300/26 103/299/26 100/370/26 99/369/26
f 137/288/39 138/287/39 134/364/39 133/363/39
f 183/306/4 184/305/4 180/284/4 179/283/4
f 144/380/17 143/379/17 145/385/17 146/386/17
f 146/386/16 145/385/16 147/358/16 148/357/16
f 111/384/20 112/383/20 122/387/20 121/388/20
f 165/368/45 166/367/45 169/362/45 170/361/45
f 121/388/19 122/387/19 124/378/19 123/377/19
f 156/382/13 155/381/13 157/356/13 158/355/13
